<svg id="Logotype_Nero" data-name="Logotype Nero" xmlns="http://www.w3.org/2000/svg" viewBox="0 0 2200 600"><path id="V" d="M1571.79,207.34a258.47,258.47,0,0,1-33.1,2.14,192.9,192.9,0,0,1-28.92-2.17c-2.8,0-14.61,8.08-17.72,10.57-1.25,1.55-.62,2.49,1.24,2.8,8.4,1.86,16.79,3.11,21.15,3.73,5.6.93,6.53,2.18,4.66,8.71-5.6,17.1-29.23,79.61-42.6,110.4-.93,3.1-2.8,5-4.35.31-19-49.45-40.12-101.69-45.72-115.07-1.24-2.48-.93-4.35,2.8-5.59,4.66-1.87,8.71-2.49,13.37-5.29,3.73-2.18,5.91-5,8.4-9,1.55-2.49.62-3.11-1.87-2.49-15.86,2.18-27.36,3.11-49.44,3.11-11.82,0-25.81-.31-36.08-1.55-2.48-.31-10.57,4-18,9.95-2.18,1.86-1.56,3.11.62,3.42,6.53.93,15.24,2.18,20.83,3.42,6.22,1.24,7.47,3.73,12.75,10.88,20.84,28.62,52.56,112.27,65.62,159.85,1.56,5.6,1.24,8.08,4,8.08,4.36,0,22.39-19.28,25.5-23.32,1.56-2.18,6.53-14.3,12.44-28.92,16.8-41.05,38.56-91.43,53.8-114.44,5.6-8.4,9.18-12.92,12.25-14,2.78-1,6.67-1.34,10.36-2.45C1567.06,219.46,1576.71,206.2,1571.79,207.34Z"/><path id="E" d="M1760.86,345.69c-1.56-1.86-2.49-1.86-4,1.25-5.28,12.75-13.06,22.7-19.9,27.36-7.15,5.29-13.06,6.53-21.46,7.78-11.5,1.86-35.14,1.55-42.6.31-6.53-1.25-7.46-5.6-7.46-9,0-16.17,1.55-39.18,1.55-55.36,0-5,.93-6.84,2.8-6.84,12.75,0,36.07-1.24,44.78-2.17,2.8-.31,3.42,2.17,4.35,4.66,2.8,10.57,5.6,15.86,10.27,19.9,2.8,2.49,4.35,1.56,4.35-1.24,0-18.35,1.56-40.43,7.77-54.73,1.25-3.42,0-3.73-2.79-2.18-6.22,2.18-12.13,4.35-13.07,5.91-2.17,2.8-4,7.15-5.59,9-2.18,2.8-6.22,3.42-11.2,3.42-16.17,0-32.34-.93-37.32-2.8-1.24-.62-4-1.24-4-4.67,0-17.41-.31-41-.31-54.73,0-4,1.24-4.66,6.53-4.66a267.33,267.33,0,0,0,42.92-3.73c2.79-.63,3.73,1.86,5,5a164.5,164.5,0,0,0,6.22,18.66c1.56,3.73,7.15,8.4,11.2,9.64,1.55.31,2.48,0,2.17-2.8-1.24-18.35,1.87-37.63,5-47.89.93-3.11.93-5.29-2.18-3.73-9,4.66-20.52,7.46-46,7.46-48.35,0-66.76.05-81.29-2.07-3.57-.35-18.29,13-13.26,13.26,10.85,0,17.11,4.05,17.74,5.92,5.28,11.81,5.28,62.19,5.28,87.07,0,26.12-1.55,56.29-3.73,62.2-1.24,3.42-1.87,5.91-4.66,6.53a81.93,81.93,0,0,0-18.35,5c-3.11,1.25-8.09,5.6-10.58,9-1.86,2.8-.93,3.42,1.56,2.8,7.15-1.55,23.32-2.18,49.13-2.18,35.77,0,63.13,2.18,85.21,2.18,10.27,0,15.24-2.18,24.26-11.82,3.42-3.73,11.82-15.55,14-29.23A16.53,16.53,0,0,0,1760.86,345.69Z"/><path id="R" d="M1956.21,253.33c0,17.42-9.33,27.68-16.8,33.28-4.66,3.42-8.39,6.53-17.1,10.88-2.18.93-1.86,4.35-.62,7.15,13.06,30.79,36.07,65.31,47.58,75.26,10,8.09,16.79,9,27.37,10,3.11.31,3.42.93,1.55,3.73a15.78,15.78,0,0,1-8.71,5.6c-5.91,1.87-12.44,2.49-23,2.49-20.84,0-36.38-4.67-50.69-23.32-14.3-18-25.81-39.5-35.45-56.6-3.11-4.67-7.15-7.78-12.75-7.78a52.07,52.07,0,0,0-5.91.31c-2.49.31-3.11,1.25-3.11,5,0,12.75-.62,39.8-.62,54.73,0,4,1.55,6.22,4.35,6.84,6.22.94,23,2.8,28.3,4.67,1.87.62,1.87,1.55.31,3.42-2.8,2.8-12.44,10.26-15.24,9.95-9.33-.93-25.5-1.87-37.94-1.87-14.3,0-40.11,1.25-52.55,3.74-3.73.93-4.35-.63-3.11-2.18,3.73-4.67,8.71-9,12.13-10.57a75.48,75.48,0,0,1,13.37-4.67c4.35-.93,5.6-2.8,6.53-5.29,3.11-10.88,4-41,4-80.85,0-40.43-1.86-61-3.42-66.86-1.24-4.67-2.17-5.6-5.91-5.6-4.66,0-16.79,1.24-25.81,2.8-3.11.31-3.42-1.24-2.17-2.49,2.79-3.11,10.26-9.95,15.23-10.88,16.49-4.36,56.29-11.2,87.08-11.2C1947.19,203,1956.21,230.63,1956.21,253.33ZM1860.74,221c-1.56.62-2.49,2.18-2.49,5.29l.31,69.34c0,3.74.93,5.6,12.44,5.6,29.85,0,43.54-7.15,43.54-35.45,0-24.88-14.93-46.34-43.23-46.34C1867,219.43,1862.91,219.74,1860.74,221Z"/><path id="E_grande" data-name="E grande" d="M1167.8,198.84c-.72-2.17-4-3.26-7.59-4.34-3.25-.36-19.53-2.17-26.76-3.62-4.7-1.08-5.42-2.53-2.89-4,7.23-4.34,19.89-12.3,22.78-11.94,16.63,2.9,43.39,4,103.78,4,29.66,0,43-3.25,53.52-8.68,3.62-1.81,3.62.72,2.53,4.34-3.61,11.93-7.23,34.35-5.78,55.69.36,3.25-.73,3.62-2.53,3.25-4.71-1.44-11.21-6.87-13-11.21a189.43,189.43,0,0,1-7.23-21.69c-1.45-3.62-2.54-6.51-5.79-5.79a309.75,309.75,0,0,1-49.9,4.34c-6.15,0-7.6.72-7.6,5.42,0,15.92.36,43.4.36,63.65,0,4,3.26,4.7,4.71,5.42,5.78,2.17,24.59,3.26,43.39,3.26,5.79,0,10.49-.73,13-4,1.81-2.17,4-7.23,6.51-10.49,1.08-1.8,8-4.34,15.18-6.87,3.26-1.81,4.71-1.44,3.26,2.53-7.23,16.64-9,42.31-9,63.65,0,3.25-1.81,4.34-5.06,1.44-5.43-4.7-8.68-10.84-11.94-23.14-1.08-2.89-1.81-5.78-5.06-5.42-10.13,1.08-37.25,2.53-52.07,2.53-2.17,0-3.26,2.17-3.26,7.95,0,18.81-1.8,45.57-1.8,64.37,0,4,1.08,9,8.67,10.49,8.68,1.44,36.17,1.81,49.54-.36,9.77-1.45,16.64-2.9,25-9,8-5.43,17-17,23.14-31.83,1.81-3.61,2.89-3.61,4.7-1.44,2.53,3.61,3.62,9,2.53,14.46-2.53,15.91-12.29,29.65-16.27,34-10.49,11.21-16.27,13.74-28.21,13.74-25.67,0-57.49-2.53-99.08-2.53-30,0-48.82.73-57.13,2.53-2.9.73-4,0-1.81-3.25,2.89-4,8.68-9,12.29-10.49a94.9,94.9,0,0,1,21.34-5.78c3.25-.73,4-3.62,5.42-7.6,2.53-6.87,4.34-41.94,4.34-72.32C1174,271.16,1174,212.58,1167.8,198.84Z"/><path id="E-2" data-name="E" d="M965.8,225.27c-.63-1.88-3.45-2.82-6.58-3.76-2.82-.32-16.93-1.88-23.19-3.14-4.08-.94-4.7-2.19-2.51-3.45,6.27-3.76,17.24-10.65,19.74-10.34,14.42,2.51,37.61,3.45,90,3.45,25.69,0,37.29-2.82,46.38-7.52,3.13-1.57,3.13.63,2.19,3.76-3.13,10.34-6.27,29.77-5,48.26.31,2.82-.63,3.14-2.2,2.82-4.07-1.25-9.71-5.95-11.28-9.71a165.82,165.82,0,0,1-6.27-18.81c-1.25-3.13-2.19-5.64-5-5a268.36,268.36,0,0,1-43.25,3.76c-5.33,0-6.58.63-6.58,4.7,0,13.79.31,37.61.31,55.16,0,3.44,2.82,4.07,4.08,4.7,5,1.88,21.31,2.82,37.6,2.82,5,0,9.09-.63,11.29-3.45,1.56-1.88,3.44-6.27,5.64-9.09.94-1.56,6.89-3.76,13.16-5.95,2.82-1.57,4.07-1.26,2.82,2.19-6.27,14.42-7.83,36.67-7.83,55.16,0,2.82-1.57,3.76-4.39,1.25-4.7-4.07-7.52-9.4-10.34-20.06-.94-2.5-1.57-5-4.39-4.7-8.78.94-32.28,2.2-45.13,2.2-1.88,0-2.82,1.88-2.82,6.89,0,16.3-1.57,39.49-1.57,55.79,0,3.44.94,7.83,7.52,9.08,7.53,1.26,31.34,1.57,42.94-.31,8.46-1.25,14.41-2.51,21.62-7.83,6.9-4.7,14.73-14.73,20.06-27.58,1.57-3.14,2.51-3.14,4.07-1.26a16.65,16.65,0,0,1,2.2,12.54c-2.2,13.79-10.66,25.7-14.11,29.46-9.08,9.71-14.1,11.91-24.44,11.91-22.25,0-49.83-2.2-85.87-2.2-26,0-42.31.63-49.51,2.2-2.51.62-3.45,0-1.57-2.82,2.51-3.45,7.52-7.84,10.65-9.09a82.61,82.61,0,0,1,18.49-5c2.82-.62,3.45-3.13,4.71-6.58,2.19-5.95,3.76-36.35,3.76-62.68C971.13,287.94,971.13,237.18,965.8,225.27Z"/><path id="L" d="M775.48,225.58c-.94-2.19-3.13-3.45-6.89-4.07-2.51-.63-14.1-2.2-20.06-3.45-4.07-.63-4.07-1.57-2.19-3.14,6.27-4.7,15.35-8.77,16.61-8.77C772,207.4,786.14,208,804.31,208a438.63,438.63,0,0,0,51.4-3.13c1.88,0,1.57.62,1.25,1.88-2.5,5.32-8.14,9.08-11.28,10.34a69.93,69.93,0,0,1-15.35,4.07c-3.45.94-6.59,5-7.21,9.4-.94,10.66-1.57,53.91-1.57,70.2s-.94,55.79-.94,72.08c0,3.76.94,8.15,7.84,9.4,7.52,1.57,24.44,1.88,36,.32,8.78-1.26,16.3-3.14,24.76-10.34,5.64-4.71,12.54-15.67,17.24-27.9,1.25-2.5,1.88-4.07,3.76-2.19,2.51,2.82,3.76,7.21,3.13,12.54-1.88,16.29-11.28,29.77-14.1,32.59-8.77,9.71-13.16,11.91-23.19,11.91C853.52,399.2,830,397,794,397c-25.7,0-42.3,1.57-49.83,2.2-4.7.62-5,0-3.13-2.82,2.51-3.76,8.15-7.84,11.6-8.78,5-1.88,10.65-3.13,17.86-5,2.51-.94,3.76-2.51,5-6,2.51-7.2,5-52.33,5-77.09C780.5,253.16,779.87,236.24,775.48,225.58Z"/><g id="Logomark"><path id="Drago" d="M606.48,235c-8-19.28-68.3-131-96.55-139.94a1.21,1.21,0,0,0-1.44,1.68c3.51,7.4,15.22,32.55,27.09,63.27a1.2,1.2,0,0,1-1.87,1.38c-12.2-10.08-39.21-27.82-62.15-28.34a1.21,1.21,0,0,0-.76,2.17c9.45,7.33,21.12,19.74,30,31.23a1.21,1.21,0,0,1-1.45,1.84c-8.77-4.15-29.05-12.4-49-9.51a1.21,1.21,0,0,0-.27,2.32c8.47,3.46,19.84,9.35,26.2,12.71a1.22,1.22,0,0,1-.58,2.29c-8.42-.17-25,.57-37.09,8.15a1.22,1.22,0,0,0,.54,2.24c6.25.49,12.87,1.33,20,2.47a1.22,1.22,0,0,1,.46,2.22C438.29,205,430.4,224.9,429.68,248.4c-.89,29.08,17.84,66,55,80.81a1.21,1.21,0,0,0,1.43-1.82c-13.51-19.3-32.34-53.4.89-79.33,7.64-6,22.46-9.74,29-6.23a1.21,1.21,0,0,1,.62,1.29c-1.71,9.22-5.59,23.58-6.53,26.58-1.85,5.94-3,6.47,1.29,11.66,2.94,3.54,7.08,4.41,11.4,4.3a1.22,1.22,0,0,0,.94-1.94c-6.18-8.72,8.69-32,32.77-37.23,21.8-4.7,34.65,19.55,38.32,27.73a1.2,1.2,0,0,0,2.21,0C600.32,266.18,609.52,242.37,606.48,235Zm-43.62-35.44a.44.44,0,0,1,.62-.31c6.85,3.2,12.49,14.05,16.41,20.47l.83,4.34C571,218.8,560.76,212,562.86,199.56Z"/><g id="Fiamma"><path d="M558.47,282.91a1.4,1.4,0,0,0-2.57-.36c-26.43,45.06,2.19,95.57,46.17,112.18,10.86,4.1,22.16,3.17,32.24-.28a1.38,1.38,0,0,0-.18-2.67c-14.5-2.66-21.47-9.81-24.74-15.51a1.39,1.39,0,0,1,2-1.79c8.56,6.11,20.32,8.69,46.71,9.36,21.63.54,41.35,10.3,51.37,28.79a1.4,1.4,0,0,0,2.64-.61c.58-22.79-4.21-47.84-20.69-64.65A69.47,69.47,0,0,0,655.6,328c-12.07-2.28-24.13-2.13-36.3-4.34C571,314.89,560.66,291.81,558.47,282.91Z"/></g><path id="Contorno_Dado_1" data-name="Contorno Dado 1" d="M569.87,428.69l20.32-11.42a1.7,1.7,0,0,0,0-3l-134-76.3a1.75,1.75,0,0,0-2.63,1.48v23.34a1.7,1.7,0,0,0,.88,1.48l113.63,64.38A1.77,1.77,0,0,0,569.87,428.69Z"/><path id="Contorno_Dado_2" data-name="Contorno Dado 2" d="M685.72,231.32,609.16,187.9a1.49,1.49,0,0,0-2.08,2l18.48,34.47a1.43,1.43,0,0,0,.58.59l35.56,20.18a1.46,1.46,0,0,1,.76,1.28l-.08,59.89a1.49,1.49,0,0,0,.91,1.37l21.12,8.85a1.5,1.5,0,0,0,2.1-1.36l0-82.54A1.48,1.48,0,0,0,685.72,231.32Z"/></g><path id="R-2" data-name="R" d="M377.44,252.22c0,17.55-9.4,27.89-16.92,33.53-4.71,3.45-8.47,6.58-17.24,11-2.19.94-1.88,4.39-.63,7.21,13.16,31,36.35,65.81,48,75.84,10,8.15,16.92,9.09,27.58,10,3.13.31,3.45.94,1.57,3.76A16,16,0,0,1,411,399.2c-6,1.88-12.54,2.5-23.19,2.5-21,0-36.67-4.7-51.08-23.5-14.42-18.18-26-39.8-35.73-57-3.13-4.7-7.21-7.83-12.85-7.83a52.75,52.75,0,0,0-5.95.31c-2.51.32-3.14,1.26-3.14,5,0,12.85-.62,40.11-.62,55.15,0,4.08,1.56,6.27,4.38,6.9,6.27.94,23.2,2.82,28.52,4.7,1.88.63,1.88,1.57.32,3.45-2.82,2.82-12.54,10.34-15.36,10-9.4-.94-25.7-1.88-38.23-1.88-14.42,0-40.43,1.26-53,3.76-3.76.94-4.38-.62-3.13-2.19,3.76-4.7,8.78-9.09,12.22-10.65a76.74,76.74,0,0,1,13.48-4.71c4.39-.94,5.64-2.82,6.58-5.32,3.13-11,4.07-41.37,4.07-81.48,0-40.74-1.88-61.43-3.44-67.38-1.26-4.7-2.2-5.64-6-5.64-4.7,0-16.92,1.25-26,2.82-3.13.31-3.45-1.26-2.19-2.51,2.82-3.13,10.34-10,15.35-11,16.61-4.39,56.73-11.28,87.75-11.28C368.35,201.45,377.44,229.34,377.44,252.22Zm-96.21-32.59c-1.57.62-2.51,2.19-2.51,5.32l.31,69.89c0,3.76.94,5.64,12.54,5.64,30.08,0,43.87-7.21,43.87-35.73,0-25.07-15-46.69-43.56-46.69C287.5,218.06,283.42,218.37,281.23,219.63Z"/></svg>